<!-- Generated by IcoMoon.io -->
<svg version="1.1" xmlns="http://www.w3.org/2000/svg" width="24" height="24" viewBox="0 0 24 24">
<title>cart</title>
<path fill="#444" d="M17 18c-1.11 0-2 0.89-2 2 0 1.105 0.895 2 2 2s2-0.895 2-2c0-1.11-0.9-2-2-2zM1 2v2h2l3.6 7.59-1.36 2.45c-0.15 0.28-0.24 0.61-0.24 0.96 0 1.105 0.895 2 2 2h12v-2h-11.58c-0.138 0-0.25-0.112-0.25-0.25 0-0.050 0.010-0.090 0.030-0.12l0.9-1.63h7.45c0.75 0 1.41-0.42 1.75-1.030l3.58-6.47c0.070-0.16 0.12-0.33 0.12-0.5 0-0.552-0.448-1-1-1h-14.79l-0.94-2zM7 18c-1.11 0-2 0.89-2 2 0 1.105 0.895 2 2 2s2-0.895 2-2c0-1.11-0.9-2-2-2z"></path>
</svg>
