<!-- Generated by IcoMoon.io -->
<svg version="1.1" xmlns="http://www.w3.org/2000/svg" width="24" height="24" viewBox="0 0 24 24">
<title>info-alt</title>
<path fill="#444" d="M13.5 4c-0.828 0-1.5 0.672-1.5 1.5v0c0 0.828 0.672 1.5 1.5 1.5v0c0.828 0 1.5-0.672 1.5-1.5v0c0-0.828-0.672-1.5-1.5-1.5v0zM13.14 8.77c-1.19 0.1-4.44 2.69-4.44 2.69-0.2 0.15-0.14 0.14 0.020 0.42 0.16 0.27 0.14 0.29 0.33 0.16 0.2-0.13 0.53-0.34 1.080-0.68 2.12-1.36 0.34 1.78-0.57 7.070-0.36 2.62 2 1.27 2.61 0.87 0.6-0.39 2.21-1.5 2.37-1.61 0.22-0.15 0.060-0.27-0.11-0.52-0.12-0.17-0.24-0.050-0.24-0.050-0.65 0.43-1.84 1.33-2 0.76-0.19-0.57 1.030-4.48 1.7-7.17 0.11-0.64 0.41-2.040-0.75-1.94z"></path>
</svg>
