<!-- Generated by IcoMoon.io -->
<svg version="1.1" xmlns="http://www.w3.org/2000/svg" width="24" height="24" viewBox="0 0 24 24">
<title>instagram</title>
<path fill="#444" d="M7.8 2h8.4c3.2 0 5.8 2.6 5.8 5.8v8.4c0 3.203-2.597 5.8-5.8 5.8h-8.4c-3.2 0-5.8-2.6-5.8-5.8v-8.4c0-3.203 2.596-5.8 5.8-5.8zM7.6 4c-1.988 0-3.6 1.612-3.6 3.6v8.8c0 1.99 1.61 3.6 3.6 3.6h8.8c1.988 0 3.6-1.612 3.6-3.6v-8.8c0-1.99-1.61-3.6-3.6-3.6h-8.8zM17.25 5.5c0.69 0 1.25 0.559 1.25 1.25s-0.559 1.25-1.25 1.25c-0.69 0-1.25-0.559-1.25-1.25s0.559-1.25 1.25-1.25zM12 7c2.761 0 5 2.239 5 5s-2.239 5-5 5c-2.761 0-5-2.239-5-5s2.239-5 5-5zM12 9c-1.657 0-3 1.343-3 3s1.343 3 3 3c1.657 0 3-1.343 3-3s-1.343-3-3-3z"></path>
</svg>
