<!-- Generated by IcoMoon.io -->
<svg version="1.1" xmlns="http://www.w3.org/2000/svg" width="24" height="24" viewBox="0 0 24 24">
<title>list</title>
<path fill="#444" d="M21 18.4h-13.5c-0.6 0-1.1-0.5-1.1-1.1s0.5-1.1 1.1-1.1h13.5c0.6 0 1.1 0.5 1.1 1.1s-0.5 1.1-1.1 1.1zM21 13.1h-13.5c-0.6 0-1.1-0.5-1.1-1.1s0.5-1.1 1.1-1.1h13.5c0.6 0 1.1 0.5 1.1 1.1s-0.5 1.1-1.1 1.1zM21 7.9h-13.5c-0.6 0-1.1-0.5-1.1-1.1s0.5-1.1 1.1-1.1h13.5c0.6 0 1.1 0.5 1.1 1.1s-0.5 1.1-1.1 1.1z"></path>
<path fill="#444" d="M3.8 8.2c-0.8 0-1.5-0.7-1.5-1.5s0.7-1.5 1.5-1.5 1.5 0.7 1.5 1.5-0.7 1.5-1.5 1.5z"></path>
<path fill="#444" d="M3.8 13.5c-0.8 0-1.5-0.7-1.5-1.5s0.7-1.5 1.5-1.5 1.5 0.7 1.5 1.5-0.7 1.5-1.5 1.5z"></path>
<path fill="#444" d="M3.8 18.8c-0.8 0-1.5-0.7-1.5-1.5s0.7-1.5 1.5-1.5 1.5 0.7 1.5 1.5-0.7 1.5-1.5 1.5z"></path>
</svg>
