<!-- Generated by IcoMoon.io -->
<svg version="1.1" xmlns="http://www.w3.org/2000/svg" width="24" height="24" viewBox="0 0 24 24">
<title>mail</title>
<path fill="#444" d="M19.875 3.75h-15.75c-1.449 0.002-2.623 1.176-2.625 2.625v11.25c0.002 1.449 1.176 2.623 2.625 2.625h15.75c1.449-0.002 2.623-1.176 2.625-2.625v-11.25c-0.002-1.449-1.176-2.623-2.625-2.625h-0zM19.21 8.092l-6.75 5.25c-0.126 0.098-0.286 0.158-0.46 0.158s-0.335-0.059-0.462-0.159l0.002 0.001-6.75-5.25c-0.182-0.138-0.298-0.355-0.298-0.598 0-0.414 0.336-0.75 0.75-0.75 0.178 0 0.341 0.062 0.47 0.166l-0.001-0.001 6.29 4.892 6.29-4.892c0.124-0.095 0.281-0.152 0.452-0.152 0.414 0 0.75 0.336 0.75 0.75 0 0.236-0.109 0.447-0.28 0.584l-0.001 0.001z"></path>
</svg>
